<svg fill="none" height="100%" width="100%" viewBox="0 0 300 300" xmlns:xlink="http://www.w3.org/1999/xlink" xmlns="http://www.w3.org/2000/svg"><defs><filter id="i0"><feColorMatrix values="0 0 0 0 1 0 0 0 0 1 0 0 0 0 1 0 0 0 1 0" type="matrix" /></filter><mask height="20000" width="20000" y="-10000" x="-10000" maskContentUnits="userSpaceOnUse" maskUnits="userSpaceOnUse" style="mask-type: alpha" mask-type="alpha" id="i1"><g transform="matrix(2.222,0,0,2.222,-272,-211.333)"><g filter="url(#i0)"><g transform="translate(157.95,8.7)"><animateTransform repeatCount="indefinite" type="translate" attributeName="transform" dur="2.167s" begin="0s" calcMode="spline" values="157.95 8.7; 157.95 148.65; 157.95 148.65" keyTimes="0; 0.076923; 1" keySplines="0.333 0 0.667 1; 0 0 1 1" fill="freeze" /><g transform="scale(0.45,0.45) translate(-61,1)"><g id="i2" transform="matrix(1,0,0,1,61,-1)"><rect height="370" width="430" y="-185" x="-215" fill="#e0e0e0" /></g></g></g></g></g></mask><filter id="i3"><feColorMatrix values="0 0 0 0 1 0 0 0 0 1 0 0 0 0 1 0 0 0 1 0" type="matrix" /></filter><mask height="20000" width="20000" y="-10000" x="-10000" maskContentUnits="userSpaceOnUse" maskUnits="userSpaceOnUse" style="mask-type: alpha" mask-type="alpha" id="i4"><g transform="matrix(2.222,0,0,2.222,-247.5,-194.833)"><g filter="url(#i3)"><g transform="translate(157.95,307.95)"><animateTransform repeatCount="indefinite" type="translate" attributeName="transform" dur="2.167s" begin="0s" calcMode="spline" values="157.95 307.95; 157.95 307.95; 157.95 149.55; 157.95 149.55" keyTimes="0; 0.115385; 0.192308; 1" keySplines="0 0 1 1; 0.333 0 0.667 1; 0 0 1 1" fill="freeze" /><g transform="scale(0.45,0.45) translate(-61,1)"><g id="i2" transform="matrix(1,0,0,1,61,-1)"><rect height="370" width="430" y="-185" x="-215" fill="#e0e0e0" /></g></g></g></g></g></mask><filter id="i5"><feColorMatrix values="0 0 0 0 1 0 0 0 0 1 0 0 0 0 1 0 0 0 1 0" type="matrix" /></filter><mask height="20000" width="20000" y="-10000" x="-10000" maskContentUnits="userSpaceOnUse" maskUnits="userSpaceOnUse" style="mask-type: alpha" mask-type="alpha" id="i6"><g transform="matrix(2.222,0,0,2.222,-201.5,-193.333)"><g filter="url(#i5)"><g transform="translate(157.95,-0.3)"><animateTransform repeatCount="indefinite" type="translate" attributeName="transform" dur="2.167s" begin="0s" calcMode="spline" values="157.95 -0.3; 157.95 -0.3; 157.95 148.65; 157.95 148.65" keyTimes="0; 0.230769; 0.307692; 1" keySplines="0 0 1 1; 0.333 0 0.667 1; 0 0 1 1" fill="freeze" /><g transform="scale(0.45,0.45) translate(-61,1)"><g id="i2" transform="matrix(1,0,0,1,61,-1)"><rect height="370" width="430" y="-185" x="-215" fill="#e0e0e0" /></g></g></g></g></g></mask><filter id="i7"><feColorMatrix values="0 0 0 0 1 0 0 0 0 1 0 0 0 0 1 0 0 0 1 0" type="matrix" /></filter><mask height="20000" width="20000" y="-10000" x="-10000" maskContentUnits="userSpaceOnUse" maskUnits="userSpaceOnUse" style="mask-type: alpha" mask-type="alpha" id="i8"><g transform="matrix(2.222,0,0,2.222,-153.5,-156.833)"><g filter="url(#i7)"><g transform="translate(157.95,314.25)"><animateTransform repeatCount="indefinite" type="translate" attributeName="transform" dur="2.167s" begin="0s" calcMode="spline" values="157.95 314.25; 157.95 314.25; 157.95 149.55; 157.95 149.55" keyTimes="0; 0.346154; 0.423077; 1" keySplines="0 0 1 1; 0.333 0 0.667 1; 0 0 1 1" fill="freeze" /><g transform="scale(0.45,0.45) translate(-61,1)"><g id="i2" transform="matrix(1,0,0,1,61,-1)"><rect height="370" width="430" y="-185" x="-215" fill="#e0e0e0" /></g></g></g></g></g></mask><filter id="i9"><feColorMatrix values="0 0 0 0 1 0 0 0 0 1 0 0 0 0 1 0 0 0 1 0" type="matrix" /></filter><mask height="20000" width="20000" y="-10000" x="-10000" maskContentUnits="userSpaceOnUse" maskUnits="userSpaceOnUse" style="mask-type: alpha" mask-type="alpha" id="i10"><g transform="matrix(2.222,0,0,2.222,-153.5,-156.833)"><g filter="url(#i9)"><g transform="translate(157.95,314.25)"><animateTransform repeatCount="indefinite" type="translate" attributeName="transform" dur="2.167s" begin="0s" calcMode="spline" values="157.95 314.25; 157.95 314.25; 157.95 149.55; 157.95 149.55" keyTimes="0; 0.346154; 0.423077; 1" keySplines="0 0 1 1; 0.333 0 0.667 1; 0 0 1 1" fill="freeze" /><g transform="scale(0.45,0.45) translate(-61,1)"><g id="i2" transform="matrix(1,0,0,1,61,-1)"><rect height="370" width="430" y="-185" x="-215" fill="#e0e0e0" /></g></g></g></g></g></mask></defs><g mask="url(#i1)" transform="matrix(0.45,0,0,0.45,122.4,95.1)" id="i11"><g id="i12" transform="matrix(1,0,0,1,133.844,143.621)"><path fill="#094f89" d="M133.594,-143.371C133.594,-143.371,111.616,-143.371,111.616,-143.371C111.616,-143.371,85.594,-143.371,85.594,-143.371C85.594,-143.371,-96.826,-143.546,-111.844,-143.371C-133.344,-143.121,-133.593,-121.121,-133.593,-121.121C-133.593,-121.121,-133.593,142.482,-133.593,142.482C-133.593,142.482,93.616,142.482,93.616,142.482C114.593,143.371,111.616,96.482,111.616,96.482C111.616,96.482,111.616,-109.505,111.616,-109.505C112.534,-123.549,116.803,-143.371,133.594,-143.371Z" /></g></g><g display="none" id="i13"><g transform="translate(157.95,8.7)"><animateTransform repeatCount="indefinite" type="translate" attributeName="transform" dur="2.167s" begin="0s" calcMode="spline" values="157.95 8.7; 157.95 148.65; 157.95 148.65" keyTimes="0; 0.076923; 1" keySplines="0.333 0 0.667 1; 0 0 1 1" fill="freeze" /><g transform="scale(0.45,0.45) translate(-61,1)"><g id="i2" transform="matrix(1,0,0,1,61,-1)"><rect height="370" width="430" y="-185" x="-215" fill="#e0e0e0" /></g></g></g></g><g mask="url(#i4)" transform="matrix(0.45,0,0,0.45,111.375,87.675)" visibility="hidden" id="i14"><animate repeatCount="indefinite" begin="0s" calcMode="discrete" dur="2.167s" values="hidden; visible; visible" keyTimes="0; 0.115018; 1" attributeName="visibility" /><g id="i12" transform="matrix(1,0,0,1,128.361,151.023)"><path fill="#e6e6e6" d="M109.499,72.378C109.499,72.378,111.043,-104.644,111.043,-104.644C111.043,-104.644,110.949,-137.645,93.378,-150.773C93.378,-150.773,-128.111,-150.761,-128.111,-150.761C-128.111,-150.761,-128.111,33.731,-128.111,125.977C-128.111,134.242,-128.363,152.525,-111.361,152.578C-45.861,152.782,83.444,152.578,83.444,152.578C83.444,152.578,108.814,152.578,108.814,152.578C108.814,152.578,127.278,151.884,127.278,151.884C110.231,151.884,109.519,92.717,109.499,72.378Z" /></g></g><g display="none" visibility="hidden" id="i15"><animate repeatCount="indefinite" begin="0s" calcMode="discrete" dur="2.167s" values="hidden; visible; visible" keyTimes="0; 0.115018; 1" attributeName="visibility" /><g transform="translate(157.95,307.95)"><animateTransform repeatCount="indefinite" type="translate" attributeName="transform" dur="2.167s" begin="0s" calcMode="spline" values="157.95 307.95; 157.95 307.95; 157.95 149.55; 157.95 149.55" keyTimes="0; 0.115385; 0.192308; 1" keySplines="0 0 1 1; 0.333 0 0.667 1; 0 0 1 1" fill="freeze" /><g transform="scale(0.45,0.45) translate(-61,1)"><g id="i2" transform="matrix(1,0,0,1,61,-1)"><rect height="370" width="430" y="-185" x="-215" fill="#e0e0e0" /></g></g></g></g><g mask="url(#i6)" transform="matrix(0.45,0,0,0.45,90.675,87)" visibility="hidden" id="i16"><animate repeatCount="indefinite" begin="0s" calcMode="discrete" dur="2.167s" values="hidden; visible; visible" keyTimes="0; 0.231036; 1" attributeName="visibility" /><g id="i12" transform="matrix(1,0,0,1,133.844,158.461)"><path fill="#094f89" d="M133.593,-158.21C133.593,-158.21,111.616,-158.21,111.616,-158.21C111.616,-158.21,85.593,-158.21,85.593,-158.21C85.593,-158.21,-45.365,-158.21,-110.844,-158.21C-118.427,-158.21,-133.643,-154.462,-133.594,-135.96C-133.344,-41.46,-133.594,157.324,-133.594,157.324C-133.594,157.324,93.616,157.324,93.616,157.324C114.593,158.211,111.616,111.324,111.616,111.324C111.616,111.324,111.616,-124.345,111.616,-124.345C112.534,-138.388,116.802,-158.21,133.593,-158.21Z" /></g></g><g display="none" visibility="hidden" id="i17"><animate repeatCount="indefinite" begin="0s" calcMode="discrete" dur="2.167s" values="hidden; visible; visible" keyTimes="0; 0.231036; 1" attributeName="visibility" /><g transform="translate(157.95,-0.3)"><animateTransform repeatCount="indefinite" type="translate" attributeName="transform" dur="2.167s" begin="0s" calcMode="spline" values="157.95 -0.3; 157.95 -0.3; 157.95 148.65; 157.95 148.65" keyTimes="0; 0.230769; 0.307692; 1" keySplines="0 0 1 1; 0.333 0 0.667 1; 0 0 1 1" fill="freeze" /><g transform="scale(0.45,0.45) translate(-61,1)"><g id="i2" transform="matrix(1,0,0,1,61,-1)"><rect height="370" width="430" y="-185" x="-215" fill="#e0e0e0" /></g></g></g></g><g mask="url(#i8)" transform="matrix(0.45,0,0,0.45,69.075,70.575)" visibility="hidden" id="i18"><animate repeatCount="indefinite" begin="0s" calcMode="discrete" dur="2.167s" values="hidden; visible; visible" keyTimes="0; 0.346053; 1" attributeName="visibility" /><g id="i19" transform="matrix(1,0,0,1,136.25,176.25)"><path fill="#f5f5f5" d="M118,130C118,130,118,-176,118,-176C118,-176,-136,-176,-136,-176C-136,-176,-136,140.5,-136,140.5C-136,160.106,-120.106,177.111,-100.5,177.111C-100.5,177.111,118,177.111,118,177.111C118,177.111,136,177.111,136,177.111C118.333,164.111,118,130,118,130Z" /></g></g><g display="none" visibility="hidden" id="i20"><animate repeatCount="indefinite" begin="0s" calcMode="discrete" dur="2.167s" values="hidden; visible; visible" keyTimes="0; 0.346053; 1" attributeName="visibility" /><g transform="translate(157.95,314.25)"><animateTransform repeatCount="indefinite" type="translate" attributeName="transform" dur="2.167s" begin="0s" calcMode="spline" values="157.95 314.25; 157.95 314.25; 157.95 149.55; 157.95 149.55" keyTimes="0; 0.346154; 0.423077; 1" keySplines="0 0 1 1; 0.333 0 0.667 1; 0 0 1 1" fill="freeze" /><g transform="scale(0.45,0.45) translate(-61,1)"><g id="i2" transform="matrix(1,0,0,1,61,-1)"><rect height="370" width="430" y="-185" x="-215" fill="#e0e0e0" /></g></g></g></g><g mask="url(#i10)" transform="matrix(0.45,0,0,0.45,69.075,70.575)" visibility="hidden" id="i21"><animate repeatCount="indefinite" begin="0s" calcMode="discrete" dur="2.167s" values="hidden; visible; visible" keyTimes="0; 0.346053; 1" attributeName="visibility" /><g id="i21" transform="matrix(0.783,0,0,1.762,1.579,-178.644)"><g id="i22" transform="matrix(1,0,0,1,117.896,153.401)"><path fill="#737373" d="M78.5,-5.667C78.5,-5.667,-79.5,-5.667,-79.5,-5.667C-79.5,-5.667,-79.5,-10.333,-79.5,-10.333C-79.5,-10.333,78.5,-10.333,78.5,-10.333C78.5,-10.333,78.5,-5.667,78.5,-5.667Z" /></g><g id="i19" transform="matrix(1,0,0,1,117.896,163.401)"><path fill="#737373" d="M78.5,-5.667C78.5,-5.667,-79.5,-5.667,-79.5,-5.667C-79.5,-5.667,-79.5,-10.333,-79.5,-10.333C-79.5,-10.333,78.5,-10.333,78.5,-10.333C78.5,-10.333,78.5,-5.667,78.5,-5.667Z" /></g><g id="i23" transform="matrix(1,0,0,1,117.896,203.401)"><path fill="#737373" d="M78.5,-5.667C78.5,-5.667,-79.5,-5.667,-79.5,-5.667C-79.5,-5.667,-79.5,-10.333,-79.5,-10.333C-79.5,-10.333,78.5,-10.333,78.5,-10.333C78.5,-10.333,78.5,-5.667,78.5,-5.667Z" /></g><g id="i24" transform="matrix(1,0,0,1,117.896,193.401)"><path fill="#737373" d="M78.5,-5.667C78.5,-5.667,-79.5,-5.667,-79.5,-5.667C-79.5,-5.667,-79.5,-10.333,-79.5,-10.333C-79.5,-10.333,78.5,-10.333,78.5,-10.333C78.5,-10.333,78.5,-5.667,78.5,-5.667Z" /></g><g id="i25" transform="matrix(1,0,0,1,117.896,213.401)"><path fill="#737373" d="M78.5,-5.667C78.5,-5.667,-79.5,-5.667,-79.5,-5.667C-79.5,-5.667,-79.5,-10.333,-79.5,-10.333C-79.5,-10.333,78.5,-10.333,78.5,-10.333C78.5,-10.333,78.5,-5.667,78.5,-5.667Z" /></g><g id="i26" transform="matrix(1,0,0,1,117.896,251.401)"><path fill="#737373" d="M78.5,-5.667C78.5,-5.667,-79.5,-5.667,-79.5,-5.667C-79.5,-5.667,-79.5,-10.333,-79.5,-10.333C-79.5,-10.333,78.5,-10.333,78.5,-10.333C78.5,-10.333,78.5,-5.667,78.5,-5.667Z" /></g><g id="i27" transform="matrix(1,0,0,1,117.896,241.401)"><path fill="#737373" d="M78.5,-5.667C78.5,-5.667,-79.5,-5.667,-79.5,-5.667C-79.5,-5.667,-79.5,-10.333,-79.5,-10.333C-79.5,-10.333,78.5,-10.333,78.5,-10.333C78.5,-10.333,78.5,-5.667,78.5,-5.667Z" /></g><g id="i28" transform="matrix(1,0,0,1,117.896,261.401)"><path fill="#737373" d="M78.5,-5.667C78.5,-5.667,-79.5,-5.667,-79.5,-5.667C-79.5,-5.667,-79.5,-10.333,-79.5,-10.333C-79.5,-10.333,78.5,-10.333,78.5,-10.333C78.5,-10.333,78.5,-5.667,78.5,-5.667Z" /></g></g><g id="i29" transform="matrix(0.158,0,0,1.762,176.992,-178.644)"><g id="i22" transform="matrix(1,0,0,1,117.896,153.401)"><path fill="#737373" d="M78.5,-5.667C78.5,-5.667,-79.5,-5.667,-79.5,-5.667C-79.5,-5.667,-79.5,-10.333,-79.5,-10.333C-79.5,-10.333,78.5,-10.333,78.5,-10.333C78.5,-10.333,78.5,-5.667,78.5,-5.667Z" /></g><g id="i19" transform="matrix(1,0,0,1,117.896,163.401)"><path fill="#737373" d="M78.5,-5.667C78.5,-5.667,-79.5,-5.667,-79.5,-5.667C-79.5,-5.667,-79.5,-10.333,-79.5,-10.333C-79.5,-10.333,78.5,-10.333,78.5,-10.333C78.5,-10.333,78.5,-5.667,78.5,-5.667Z" /></g><g id="i23" transform="matrix(1,0,0,1,117.896,203.401)"><path fill="#737373" d="M78.5,-5.667C78.5,-5.667,-79.5,-5.667,-79.5,-5.667C-79.5,-5.667,-79.5,-10.333,-79.5,-10.333C-79.5,-10.333,78.5,-10.333,78.5,-10.333C78.5,-10.333,78.5,-5.667,78.5,-5.667Z" /></g><g id="i24" transform="matrix(1,0,0,1,117.896,193.401)"><path fill="#737373" d="M78.5,-5.667C78.5,-5.667,-79.5,-5.667,-79.5,-5.667C-79.5,-5.667,-79.5,-10.333,-79.5,-10.333C-79.5,-10.333,78.5,-10.333,78.5,-10.333C78.5,-10.333,78.5,-5.667,78.5,-5.667Z" /></g><g id="i25" transform="matrix(1,0,0,1,117.896,213.401)"><path fill="#737373" d="M78.5,-5.667C78.5,-5.667,-79.5,-5.667,-79.5,-5.667C-79.5,-5.667,-79.5,-10.333,-79.5,-10.333C-79.5,-10.333,78.5,-10.333,78.5,-10.333C78.5,-10.333,78.5,-5.667,78.5,-5.667Z" /></g><g id="i26" transform="matrix(1,0,0,1,117.896,251.401)"><path fill="#737373" d="M78.5,-5.667C78.5,-5.667,-79.5,-5.667,-79.5,-5.667C-79.5,-5.667,-79.5,-10.333,-79.5,-10.333C-79.5,-10.333,78.5,-10.333,78.5,-10.333C78.5,-10.333,78.5,-5.667,78.5,-5.667Z" /></g><g id="i27" transform="matrix(1,0,0,1,117.896,241.401)"><path fill="#737373" d="M78.5,-5.667C78.5,-5.667,-79.5,-5.667,-79.5,-5.667C-79.5,-5.667,-79.5,-10.333,-79.5,-10.333C-79.5,-10.333,78.5,-10.333,78.5,-10.333C78.5,-10.333,78.5,-5.667,78.5,-5.667Z" /></g><g id="i28" transform="matrix(1,0,0,1,117.896,261.401)"><path fill="#737373" d="M78.5,-5.667C78.5,-5.667,-79.5,-5.667,-79.5,-5.667C-79.5,-5.667,-79.5,-10.333,-79.5,-10.333C-79.5,-10.333,78.5,-10.333,78.5,-10.333C78.5,-10.333,78.5,-5.667,78.5,-5.667Z" /></g></g><g id="i30" transform="matrix(1,0,0,1,40.722,38.722)"><ellipse ry="8.889" rx="8.889" cy="0" cx="0" fill="#737373" /></g><g id="i31" transform="matrix(1,0,0,1,68.222,38.722)"><ellipse ry="8.889" rx="8.889" cy="0" cx="0" fill="#737373" /></g><g id="i32" transform="matrix(1,0,0,1,118.722,38.722)"><ellipse ry="8.889" rx="8.889" cy="0" cx="0" fill="#737373" /></g><g id="i33" transform="matrix(1,0,0,1,146.222,38.722)"><ellipse ry="8.889" rx="8.889" cy="0" cx="0" fill="#737373" /></g></g><g display="none" visibility="hidden" id="i34"><animate repeatCount="indefinite" begin="0s" calcMode="discrete" dur="2.167s" values="hidden; visible; visible" keyTimes="0; 0.346053; 1" attributeName="visibility" /><g transform="translate(157.95,314.25)"><animateTransform repeatCount="indefinite" type="translate" attributeName="transform" dur="2.167s" begin="0s" calcMode="spline" values="157.95 314.25; 157.95 314.25; 157.95 149.55; 157.95 149.55" keyTimes="0; 0.346154; 0.423077; 1" keySplines="0 0 1 1; 0.333 0 0.667 1; 0 0 1 1" fill="freeze" /><g transform="scale(0.45,0.45) translate(-61,1)"><g id="i2" transform="matrix(1,0,0,1,61,-1)"><rect height="370" width="430" y="-185" x="-215" fill="#e0e0e0" /></g></g></g></g><g visibility="hidden" id="i35"><animate repeatCount="indefinite" begin="0s" calcMode="discrete" dur="2.167s" values="hidden; visible; visible" keyTimes="0; 0.138021; 1" attributeName="visibility" /><g transform="translate(158.4,221.568)"><g transform="scale(0,0)"><animateTransform repeatCount="indefinite" type="scale" attributeName="transform" dur="2.167s" begin="0s" calcMode="spline" values="0 0; 0 0; 0.605 0.605; 0.504 0.504; 0.504 0.504" keyTimes="0; 0.446154; 0.553846; 0.661539; 1" keySplines="0 0 1 1; 0.908 0 0.667 1; 0.333 0 0.139 1; 0 0 1 1" fill="freeze" /><g transform="translate(-43.5,-43.5)"><g id="i36" transform="matrix(1,0,0,1,43.158,43.158)"><path fill="#6cc94b" d="M42.908,0C42.908,23.697,23.697,42.908,0,42.908C-23.697,42.908,-42.908,23.697,-42.908,0C-42.908,-23.697,-23.697,-42.908,0,-42.908C23.697,-42.908,42.908,-23.697,42.908,0Z" /></g><g id="i37" transform="matrix(1,0,0,1,43.158,41.583)"><path d="M-32.581,4.813C-32.581,4.813,-33.483,4.995,-33.483,4.995C-33.483,4.995,-22.211,-2.273,-22.211,-2.273C-22.211,-2.273,-22.76,-2.286,-22.76,-2.286C-22.76,-2.286,-21.72,-1.953,-21.72,-1.953C-21.72,-1.953,-22.968,-2.008,-22.968,-2.008C-22.968,-2.008,-32.581,4.813,-32.581,4.813Z" fill="#ffe7dc"><animate repeatCount="indefinite" attributeName="d" dur="2.167s" begin="0s" calcMode="spline" values="M-32.581,4.813C-32.581,4.813,-33.483,4.995,-33.483,4.995C-33.483,4.995,-22.211,-2.273,-22.211,-2.273C-22.211,-2.273,-22.76,-2.286,-22.76,-2.286C-22.76,-2.286,-21.72,-1.953,-21.72,-1.953C-21.72,-1.953,-22.968,-2.008,-22.968,-2.008C-22.968,-2.008,-32.581,4.813,-32.581,4.813Z; M-32.581,4.813C-32.581,4.813,-33.483,4.995,-33.483,4.995C-33.483,4.995,-22.211,-2.273,-22.211,-2.273C-22.211,-2.273,-22.76,-2.286,-22.76,-2.286C-22.76,-2.286,-21.72,-1.953,-21.72,-1.953C-21.72,-1.953,-22.968,-2.008,-22.968,-2.008C-22.968,-2.008,-32.581,4.813,-32.581,4.813Z; M-32.581,4.813C-32.581,4.813,-22.025,22.078,-22.025,22.078C-22.025,22.078,-10.752,14.811,-10.752,14.811C-10.752,14.811,-19.01,5.839,-19.01,5.839C-19.01,5.839,-16.72,10.339,-16.72,10.339C-16.72,10.339,-22.968,-2.008,-22.968,-2.008C-22.968,-2.008,-32.581,4.813,-32.581,4.813Z; M-32.581,4.813C-32.581,4.813,-22.025,22.078,-22.025,22.078C-22.025,22.078,32.581,-13.106,32.581,-13.106C32.581,-13.106,24.323,-22.078,24.323,-22.078C24.323,-22.078,-16.72,10.339,-16.72,10.339C-16.72,10.339,-22.968,-2.008,-22.968,-2.008C-22.968,-2.008,-32.581,4.813,-32.581,4.813Z; M-32.581,4.813C-32.581,4.813,-22.025,22.078,-22.025,22.078C-22.025,22.078,32.581,-13.106,32.581,-13.106C32.581,-13.106,24.323,-22.078,24.323,-22.078C24.323,-22.078,-16.72,10.339,-16.72,10.339C-16.72,10.339,-22.968,-2.008,-22.968,-2.008C-22.968,-2.008,-32.581,4.813,-32.581,4.813Z" keyTimes="0; 0.553846; 0.646154; 0.738462; 1" keySplines="0 0 1 1; 0.333 0 0.667 1; 0.333 0 0.667 1; 0 0 1 1" fill="freeze" /></path></g></g></g></g></g></svg>